<?xml version="1.0" encoding="UTF-8"?>
<svg width="264px" height="377px" viewBox="0 0 264 377" version="1.1" xmlns="http://www.w3.org/2000/svg" xmlns:xlink="http://www.w3.org/1999/xlink">
    <!-- Generator: Sketch 44.1 (41455) - http://www.bohemiancoding.com/sketch -->
    <title>shep</title>
    <desc>Created with Sketch.</desc>
    <defs></defs>
    <g id="Page-1" stroke="none" stroke-width="1" fill="none" fill-rule="evenodd">
        <g id="Group">
            <path d="M162.461967,84.0217292 C167.624967,83.5527292 169.133967,90.7757292 165.461967,96.0217292 C151.461967,116.021729 143.461967,141.021729 136.364967,161.017729 C134.334967,166.739729 128.801967,178.214729 124.160967,179.791729 C118.029967,181.875729 111.159967,178.772729 108.672967,174.628729 C105.857967,169.935729 100.592967,158.759729 97.8779673,149.752729 C97.1109673,147.207729 95.9619673,143.612729 96.0009673,140.835729 C96.0799673,135.114729 102.993967,123.189729 109.611967,126.754729 C113.013967,128.586729 116.702967,148.431729 122.754967,147.875729 C125.262967,147.644729 127.893967,137.681729 129.461967,133.021729 C133.781967,120.187729 139.433967,109.061729 146.461967,99.0217292 C153.461967,89.0217292 156.892967,84.7227292 162.461967,84.0217292 Z" id="Shape" fill="#00E676" fill-rule="nonzero"></path>
            <circle id="Oval" stroke="#00E676" stroke-width="8" cx="132" cy="132" r="128"></circle>
            <path d="M47.596,312.34 C45.3159886,311.739997 43.0480113,311.44 40.792,311.44 C36.3759779,311.44 32.8360133,312.339991 30.172,314.14 C27.5079867,315.940009 26.176,318.327985 26.176,321.304 C26.176,323.896013 26.8239935,325.983992 28.12,327.568 C29.4160065,329.152008 31.0119905,330.363996 32.908,331.204 C34.8040095,332.044004 37.3839837,332.967995 40.648,333.976 C44.1040173,335.032005 46.8639897,336.027995 48.928,336.964 C50.9920103,337.900005 52.7319929,339.279991 54.148,341.104 C55.5640071,342.928009 56.272,345.327985 56.272,348.304 C56.272,350.800012 55.576007,352.995991 54.184,354.892 C52.791993,356.788009 50.8120128,358.251995 48.244,359.284 C45.6759872,360.316005 42.6640173,360.832 39.208,360.832 C36.0399842,360.832 32.9080155,360.184006 29.812,358.888 C26.7159845,357.591994 24.1120106,355.864011 22,353.704 L23.008,352.696 C24.9280096,354.76001 27.3519854,356.391994 30.28,357.592 C33.2080146,358.792006 36.1839849,359.392 39.208,359.392 C43.9600238,359.392 47.7519858,358.38401 50.584,356.368 C53.4160142,354.35199 54.832,351.664017 54.832,348.304 C54.832,345.663987 54.1720066,343.540008 52.852,341.932 C51.5319934,340.323992 49.9120096,339.076004 47.992,338.188 C46.0719904,337.299996 43.4560166,336.352005 40.144,335.344 C36.735983,334.287995 34.0120102,333.292005 31.972,332.356 C29.9319898,331.419995 28.216007,330.064009 26.824,328.288 C25.431993,326.511991 24.736,324.160015 24.736,321.232 C24.736,317.823983 26.1999854,315.10001 29.128,313.06 C32.0560146,311.01999 35.9439758,310 40.792,310 C43.1440118,310 45.5319879,310.335997 47.956,311.008 C50.3800121,311.680003 52.4559914,312.567994 54.184,313.672 L53.464,314.824 C51.8319918,313.767995 49.8760114,312.940003 47.596,312.34 Z M80.96,310.288 L82.4,310.288 L82.4,334.48 L118.616,334.48 L118.616,310.288 L120.056,310.288 L120.056,360.616 L118.616,360.616 L118.616,335.92 L82.4,335.92 L82.4,360.616 L80.96,360.616 L80.96,310.288 Z M148.488,310.288 L179.952,310.288 L179.952,311.728 L149.928,311.728 L149.928,333.976 L176.64,333.976 L176.64,335.416 L149.928,335.416 L149.928,359.176 L180.96,359.176 L180.96,360.616 L148.488,360.616 L148.488,310.288 Z M236.104,314.572 C239.464017,317.428014 241.144,321.447974 241.144,326.632 C241.144,331.912026 239.464017,336.015985 236.104,338.944 C232.743983,341.872015 228.01603,343.336 221.92,343.336 L206.296,343.336 L206.296,360.616 L204.856,360.616 L204.856,310.288 L221.92,310.288 C228.01603,310.288 232.743983,311.715986 236.104,314.572 Z M235.06,337.9 C238.156015,335.235987 239.704,331.480024 239.704,326.632 C239.704,321.879976 238.156015,318.208013 235.06,315.616 C231.963985,313.023987 227.584028,311.728 221.92,311.728 L206.296,311.728 L206.296,341.896 L221.92,341.896 C227.584028,341.896 231.963985,340.564013 235.06,337.9 Z" id="SHEP" fill="#000000"></path>
        </g>
    </g>
</svg>